<svg width="16" height="16" viewBox="0 0 16 16" fill="none" xmlns="http://www.w3.org/2000/svg">
<g clip-path="url(#clip0_902_2)">
<path d="M0 8C0 3.58172 3.58172 0 8 0V0C12.4183 0 16 3.58172 16 8V8C16 12.4183 12.4183 16 8 16H0.761905C0.341116 16 0 15.6589 0 15.2381V8Z" fill="#5ED9D1"/>
<path d="M12.3921 4.61994L4.98619 11.0901L3.22209 11.6609C3.08896 11.6944 2.97246 11.5769 3.00575 11.4426L3.57159 9.74716L11.0607 3.27698C11.4268 2.90767 12.0259 2.90767 12.3921 3.27698C12.7582 3.6463 12.7582 4.25063 12.3921 4.61994Z" fill="#171753"/>
<path d="M3 13H9" stroke="#171753" stroke-width="1.4" stroke-miterlimit="10" stroke-linecap="round"/>
</g>
<defs>
<clipPath id="clip0_902_2">
<rect width="16" height="16" fill="white"/>
</clipPath>
</defs>
</svg>
